<svg xmlns="http://www.w3.org/2000/svg" width="63" height="16" viewBox="0 0 63 16">
    <g fill="#FFF" fill-rule="evenodd">
        <path fill-opacity=".01" d="M0 0h63v16H0z"/>
        <path fill-rule="nonzero" d="M6.873 1.143c3.795 0 6.872 3.07 6.872 6.857 0 3.787-3.077 6.857-6.872 6.857C3.077 14.857 0 11.787 0 8c0-3.787 3.077-6.857 6.873-6.857zm16.922 3.015h.03V3.41h2.048v7.428c0 2.159-1.717 3.656-4.126 3.656a4.934 4.934 0 0 1-4.098-1.814l1.53-1.266a2.957 2.957 0 0 0 2.568 1.252c1.197 0 2.077-.763 2.077-1.8v-.547h-.029a3.265 3.265 0 0 1-2.466.922 4 4 0 0 1-3.545-1.94 3.98 3.98 0 0 1-.037-4.033 4 4 0 0 1 3.509-2.002 3.44 3.44 0 0 1 2.54.892zm17.46-.964a4.036 4.036 0 0 1 3.967 4.023 4.036 4.036 0 0 1-3.953 4.038 3.706 3.706 0 0 1-2.395-.806h-.03v3.829H36.71V3.41h2.05v.676h.029a3.408 3.408 0 0 1 2.466-.892zm14.702.216l2.322 4.98h.03l2.294-4.98h2.366l-5.295 10.868h-2.352l1.818-3.656-3.535-7.212h2.352zM4.39 4.455a1.826 1.826 0 0 0-1.375 1.526 13.59 13.59 0 0 0 0 4.06c.155.783.778 1.39 1.567 1.525 1.59.198 3.2.198 4.79 0a1.675 1.675 0 0 0 1.33-1.44c.142-.771.2-1.556.174-2.34a1.596 1.596 0 0 0-1.523-1.5H4.868a.286.286 0 1 1 0-.571h4.398a1.364 1.364 0 0 0-1.002-1.26 11.17 11.17 0 0 0-3.874 0zm26.85-1.261c2.497 0 4.315 1.77 4.315 4.03 0 2.26-1.818 4.031-4.315 4.031a4.051 4.051 0 0 1-3.725-1.935 4.032 4.032 0 0 1 0-4.191 4.051 4.051 0 0 1 3.725-1.935zm18.412 0c2.236 0 3.622 1.137 3.622 2.993v4.852h-1.92v-.835h-.029a3.16 3.16 0 0 1-2.583 1.051c-1.688 0-2.856-.921-2.856-2.275 0-1.425.952-2.159 3.362-2.49 1.4-.187 1.818-.388 1.818-.777 0-.504-.534-.806-1.356-.806a1.804 1.804 0 0 0-1.905 1.367l-2.02-.417c.288-1.555 1.89-2.663 3.867-2.663zm1.587 4.102h-.03c-.187.274-.59.432-1.629.62-1.256.23-1.702.474-1.702.92 0 .461.374.663 1.182.663 1.227 0 2.179-.562 2.179-1.296v-.907zM31.24 5.065a2.162 2.162 0 0 0-2.149 2.169 2.162 2.162 0 0 0 2.169 2.15 2.162 2.162 0 0 0 2.16-2.16 2.064 2.064 0 0 0-.61-1.562 2.074 2.074 0 0 0-1.57-.597zm9.683.014c-1.126 0-2.078.792-2.078 1.656v.964c0 .922.924 1.684 2.092 1.684a2.155 2.155 0 0 0 2.15-2.158 2.155 2.155 0 0 0-2.164-2.146zm-19.262.058c-1.386 0-2.31.835-2.31 2.087a2.014 2.014 0 0 0 .612 1.588 2.024 2.024 0 0 0 1.61.557c1.198 0 2.165-.748 2.165-1.684v-.893c0-.863-.981-1.655-2.077-1.655zM9.163 8a.43.43 0 0 1 .43.428.419.419 0 0 1-.143.317v.255a.286.286 0 0 1-.573 0v-.255a.419.419 0 0 1-.143-.317.43.43 0 0 1 .43-.428z"/>
    </g>
</svg>
